<svg width="322" height="44" viewBox="0 0 322 44" fill="none" xmlns="http://www.w3.org/2000/svg">
<g clip-path="url(#clip0_22_2)">
<path d="M56.0503 31.2901C56.0503 31.2901 56.9303 31.2501 57.5203 32.1301L60.1603 35.9101C60.5503 36.4601 60.9603 36.9801 61.4003 37.4601C61.8403 37.9401 62.3103 38.3501 62.8103 38.6901C63.3103 39.0301 63.8703 39.3001 64.4703 39.4901C65.0803 39.6801 65.7503 39.7801 66.5103 39.7801C67.1003 39.7801 67.6003 39.7201 68.0403 39.5901C68.4703 39.4601 68.9103 39.2901 69.3303 39.0001L69.6003 38.8301C69.2103 38.5701 68.4903 38.0101 68.0203 37.5501C67.5503 37.0901 67.0803 36.6001 66.6003 36.0701C66.1203 35.5501 65.6603 35.0101 65.2303 34.4701C64.7903 33.9301 63.4903 32.1901 63.4903 32.1901C62.5303 30.9901 61.2603 31.3001 60.3803 31.3001H56.0603" fill="#139AD8"/>
<path d="M123.9 19.1201V39.2601H133.11C134.82 39.2601 136.44 39.0601 137.96 38.6501C139.48 38.2501 140.82 37.6301 141.97 36.8101C143.12 35.9801 144.03 34.9301 144.7 33.6501C145.37 32.3701 145.7 30.8501 145.7 29.1101C145.7 27.3701 145.39 25.9801 144.76 24.7201C144.14 23.4601 143.29 22.4201 142.22 21.6001C141.15 20.7701 139.9 20.1601 138.46 19.7401C137.03 19.3301 135.5 19.1201 133.88 19.1201H123.9ZM140.95 29.2001C140.95 30.3301 140.75 31.2801 140.36 32.0401C139.96 32.8001 139.43 33.4201 138.75 33.8901C138.08 34.3601 137.3 34.7001 136.42 34.9101C135.54 35.1201 134.62 35.2201 133.65 35.2201H128.63V23.1701H133.63C136.06 23.1701 137.89 23.6801 139.12 24.7101C140.35 25.7401 140.96 27.2301 140.96 29.1901L140.95 29.2001Z" fill="#139AD8"/>
<path d="M93.1503 23.1901L92.0503 19.1301H75.2803V39.2601H91.7803L94.0003 35.2201H80.0103V31.3001H90.1803L92.2503 27.4001H80.0103V23.1901H93.1503Z" fill="#139AD8"/>
<path d="M117.46 23.1901L116.36 19.1301H99.5903V39.2601H116.08L118.31 35.2201H104.31V31.3001H114.49L116.56 27.4001H104.31V23.1901H117.46Z" fill="#139AD8"/>
<path d="M35.1501 27.1801C36.2301 27.1801 36.9901 27.0101 37.4101 26.6701C37.8301 26.3301 38.0401 25.8101 38.0401 25.1801C38.0401 24.5501 37.8301 24.0701 37.4101 23.7301C36.9901 23.3901 36.2301 23.2201 35.1501 23.2201H26.8601V39.2601H22.1201V19.1201H35.1501C36.3101 19.1201 37.3601 19.2601 38.3001 19.5301C39.2501 19.8101 40.0501 20.2101 40.7101 20.7501C41.3701 21.2901 41.8801 21.9401 42.2401 22.7101C42.6001 23.4801 42.7801 24.3601 42.7801 25.3401C42.7801 26.2101 42.6401 27.0201 42.3501 27.7401C42.0701 28.4601 41.6101 29.0801 40.9901 29.6101C40.3701 30.1401 39.5701 30.5501 38.6101 30.8401C38.2801 30.9401 37.9101 31.0201 37.5201 31.0901C37.5201 31.0901 36.7801 31.2901 33.2901 31.3001H28.4701L30.6701 27.1801H35.1401H35.1501Z" fill="#139AD8"/>
<path d="M61.7302 27.1801C62.8102 27.1801 63.5702 27.0101 63.9902 26.6701C64.4102 26.3301 64.6202 25.8101 64.6202 25.1801C64.6202 24.5501 64.4102 24.0701 63.9902 23.7301C63.5702 23.3901 62.8102 23.2201 61.7302 23.2201H53.4402V39.2601H48.7002V19.1201H61.7302C62.8902 19.1201 63.9402 19.2601 64.8902 19.5301C65.8402 19.8101 66.6402 20.2101 67.3002 20.7501C67.9602 21.2901 68.4702 21.9401 68.8302 22.7101C69.1902 23.4801 69.3702 24.3601 69.3702 25.3401C69.3702 26.2101 69.2302 27.0201 68.9402 27.7401C68.6502 28.4601 68.2002 29.0801 67.5802 29.6101C66.9602 30.1401 66.1602 30.5501 65.2002 30.8401C64.8702 30.9401 64.5002 31.0201 64.1102 31.0901C64.1102 31.0901 63.3702 31.2901 59.8802 31.3001H55.0602L57.2602 27.1801H61.7302Z" fill="#139AD8"/>
<path d="M52.0099 0C51.3499 0 50.9299 0.52 50.9099 1.31V7.3C50.9099 8.18 50.7399 8.73 50.3899 8.97L49.9699 9.27C49.6099 9.52 49.4399 9.84 49.4399 10.25C49.4399 10.94 49.9699 11.43 50.7199 11.43C51.6999 11.43 52.6999 10.52 52.9899 9.37C53.0999 8.96 53.0999 8.82 53.0999 7.84V1.31C53.0999 0.54 52.6699 0 52.0199 0H52.0099Z" fill="#139AD8"/>
<path d="M56.2399 0C55.5999 0 55.1699 0.52 55.1499 1.31V7.35C55.1499 8.13 55.5999 8.66 56.2499 8.66C56.8999 8.66 57.3199 8.15 57.3299 7.35V1.31C57.3299 0.54 56.8899 0 56.2299 0H56.2399Z" fill="#139AD8"/>
<path d="M35.33 0C33.03 0 31.23 1.94 31.23 4.43V7.31C31.23 8.11 31.69 8.65 32.36 8.65C33.03 8.65 33.45 8.12 33.47 7.31V4.37C33.49 3.22 34.28 2.35 35.33 2.35C36.38 2.35 37.14 3.22 37.16 4.31V7.31C37.16 8.11 37.61 8.65 38.28 8.65C38.95 8.65 39.37 8.12 39.39 7.31V4.38C39.39 1.94 37.58 0 35.33 0Z" fill="#139AD8"/>
<path d="M63.2501 0C60.9501 0 59.1401 1.94 59.1401 4.43V7.31C59.1401 8.11 59.6001 8.65 60.2701 8.65C60.9401 8.65 61.3601 8.12 61.3801 7.31V4.37C61.3801 3.22 62.1801 2.35 63.2501 2.35C64.2401 2.35 65.0601 3.22 65.0801 4.31V7.31C65.0801 8.11 65.5201 8.65 66.1901 8.65C66.8601 8.65 67.2801 8.12 67.3001 7.31V4.38C67.3001 1.94 65.4901 0 63.2501 0Z" fill="#139AD8"/>
<path d="M10.81 0C10.16 0 9.73 0.52 9.71 1.3V4.78C9.71 5.63 9.14 6.3 8.39 6.3C7.88 6.3 7.39 5.96 7.19 5.49C7.07 5.19 7.04 4.98 7.04 4.27V1.3C7.04 0.53 6.6 0 5.96 0H5.94C5.3 0 4.87 0.52 4.86 1.3V4.78C4.86 5.63 4.28 6.3 3.53 6.3C3.02 6.3 2.53 5.96 2.33 5.49C2.22 5.19 2.19 4.98 2.19 4.27V1.3C2.19 0.53 1.75 0 1.08 0C0.41 0 0.02 0.52 0 1.3V4.48C0 5.42 0.16 6.23 0.47 6.78C1.13 7.93 2.32 8.65 3.54 8.65C4.44 8.65 5.31 8.26 5.96 7.59C6.63 8.26 7.51 8.65 8.4 8.65C9.45 8.65 10.47 8.12 11.12 7.24C11.67 6.5 11.89 5.71 11.89 4.56V1.3C11.89 0.53 11.45 0 10.81 0Z" fill="#139AD8"/>
<path d="M22.2301 5.56001C22.7101 7.39001 24.2701 8.71001 26.1201 8.71001C28.4201 8.71001 30.2201 6.77001 30.2201 4.29001C30.2201 1.95001 28.3701 0.0100098 26.1401 0.0100098C24.2801 0.0100098 22.6901 1.38001 22.2201 3.21001H20.8601C20.3801 1.39001 18.7801 0.0200098 16.9101 0.0200098C14.6901 0.0200098 12.8501 1.98001 12.8501 4.35001C12.8501 6.72001 14.6501 8.73001 16.9001 8.73001C18.7901 8.73001 20.3501 7.41001 20.8401 5.55001H22.2301V5.56001ZM26.1301 2.38001C27.1501 2.38001 27.9801 3.27001 27.9801 4.31001C27.9801 5.47001 27.1801 6.36001 26.1101 6.36001C25.0401 6.36001 24.2801 5.47001 24.2801 4.36001C24.2801 3.25001 25.1101 2.38001 26.1301 2.38001ZM16.9001 6.39001C15.8901 6.39001 15.0701 5.50001 15.0701 4.39001C15.0701 3.28001 15.9001 2.41001 16.9201 2.41001C17.9401 2.41001 18.7801 3.30001 18.7801 4.34001C18.7801 5.50001 17.9701 6.39001 16.9101 6.39001H16.9001Z" fill="#139AD8"/>
<path d="M45.8399 9.2V7.99C47.5499 7.5 48.7699 5.96 48.7699 4.1C48.7699 1.81 46.9699 0 44.6599 0C42.4899 0 40.6899 1.85 40.6899 4.09C40.6899 5.95 41.9599 7.54 43.6699 8.01V9.19C41.9799 9.66 40.7199 11.26 40.7199 13.14C40.7199 15.37 42.5399 17.2 44.7399 17.2C46.9399 17.2 48.8099 15.4 48.8099 13.15C48.8099 11.25 47.5799 9.7 45.8599 9.21L45.8399 9.2ZM42.8999 4.09C42.8999 3.07 43.7199 2.23 44.6899 2.23C45.7799 2.23 46.5999 3.03 46.5999 4.1C46.5999 5.17 45.7799 5.94 44.7399 5.94C43.6999 5.94 42.8999 5.1 42.8999 4.09ZM44.7599 14.98C43.7299 14.98 42.9099 14.14 42.9099 13.13C42.9099 12.12 43.7299 11.27 44.6999 11.27C45.7799 11.27 46.5999 12.07 46.5999 13.14C46.5999 14.21 45.7799 14.98 44.7499 14.98H44.7599Z" fill="#139AD8"/>
<path d="M152.29 32.7201C152.07 32.7201 151.85 32.6101 151.63 32.3601C151.38 32.1401 151.27 31.8601 151.27 31.5601C151.27 31.2801 151.38 31.0401 151.6 30.7901C151.82 30.5701 152.04 30.4301 152.26 30.4301H170.3C170.52 30.4301 170.77 30.5401 171.02 30.7301C171.24 30.9501 171.38 31.2301 171.38 31.5601C171.38 31.8601 171.27 32.1401 171.08 32.3601C170.86 32.6101 170.61 32.7201 170.36 32.7201H162.77V34.2101C163.05 34.2701 163.35 34.3501 163.65 34.4301C164.31 34.7101 164.92 35.0401 165.44 35.4501C165.94 35.8901 166.35 36.4201 166.65 36.9901C166.93 37.6001 167.09 38.2601 167.09 38.9801C167.09 39.6401 166.95 40.2501 166.68 40.8301C166.38 41.4101 165.99 41.9301 165.49 42.4001C164.97 42.8401 164.36 43.2001 163.7 43.4801C162.98 43.7301 162.24 43.8701 161.44 43.8701C160.64 43.8701 159.9 43.7301 159.21 43.5101C158.49 43.2601 157.89 42.9301 157.39 42.5201C156.84 42.0801 156.42 41.5501 156.15 40.9801C155.85 40.3701 155.71 39.7101 155.71 38.9901C155.71 38.2701 155.85 37.6101 156.15 37.0001C156.43 36.4201 156.84 35.9001 157.39 35.4601C157.89 35.0501 158.49 34.7201 159.18 34.4401C159.43 34.3801 159.68 34.3001 159.95 34.2501V32.7301H152.28L152.29 32.7201ZM161.31 29.4301C160.43 29.4301 159.65 29.2901 158.94 29.0201C158.22 28.7701 157.59 28.4101 157.09 27.9201C156.54 27.4801 156.15 26.9301 155.88 26.2901C155.58 25.6801 155.44 24.9901 155.44 24.2801C155.44 23.5701 155.58 22.9001 155.88 22.2701C156.16 21.6601 156.57 21.1101 157.12 20.6101C157.62 20.1701 158.25 19.7801 158.97 19.5101C159.69 19.2301 160.46 19.1001 161.29 19.1001C162.12 19.1001 162.89 19.2401 163.61 19.5101C164.3 19.7901 164.91 20.1701 165.43 20.6101C165.95 21.1101 166.37 21.6601 166.67 22.2701C166.95 22.9001 167.11 23.5701 167.11 24.2801C167.11 24.9401 166.97 25.5801 166.7 26.1801C166.42 26.8101 166.01 27.3701 165.51 27.8401C165.01 28.3401 164.41 28.7201 163.69 29.0001C162.97 29.3001 162.17 29.4401 161.32 29.4401L161.31 29.4301ZM161.29 21.4901C160.41 21.4901 159.69 21.7701 159.08 22.2601C158.47 22.7801 158.17 23.4501 158.17 24.2701C158.17 25.0401 158.47 25.7001 159.08 26.2601C159.69 26.8101 160.4 27.0901 161.29 27.0901C162.12 27.0901 162.83 26.8101 163.44 26.2601C164.05 25.7101 164.35 25.0501 164.35 24.2701C164.35 23.4401 164.05 22.7801 163.47 22.2601C162.86 21.7601 162.12 21.4901 161.29 21.4901ZM161.43 36.4701C160.6 36.4701 159.91 36.6901 159.33 37.1001C158.72 37.5401 158.45 38.1501 158.45 38.9801C158.45 39.7501 158.73 40.3901 159.31 40.8301C159.86 41.2701 160.55 41.5201 161.43 41.5201C162.26 41.5201 162.95 41.2701 163.53 40.8301C164.08 40.3901 164.36 39.7501 164.36 38.9801C164.36 38.1501 164.06 37.5501 163.5 37.1001C162.92 36.6901 162.23 36.4701 161.43 36.4701Z" fill="#898A8D"/>
<path d="M180.34 27.7202L180.26 27.5802L180.18 27.7502C179.63 28.8002 178.94 29.7402 178.17 30.5402C177.37 31.3702 176.51 32.0002 175.58 32.5002C175.3 32.6702 174.97 32.7202 174.64 32.6702C174.28 32.6402 174.01 32.4802 173.84 32.2002C173.62 31.9502 173.54 31.6502 173.62 31.2902C173.68 30.9602 173.84 30.6802 174.12 30.5202C174.62 30.1902 175.14 29.7802 175.69 29.2802C176.21 28.8102 176.71 28.2902 177.18 27.6802C177.62 27.1002 178.01 26.4702 178.31 25.8002C178.59 25.1402 178.75 24.4802 178.75 23.7602V22.7402H175.41C175.19 22.7402 174.97 22.6302 174.75 22.3802C174.5 22.1602 174.39 21.8802 174.39 21.6102C174.39 21.2802 174.5 21.0002 174.72 20.7802C174.94 20.5902 175.16 20.4802 175.38 20.4802H185.12C185.4 20.4802 185.64 20.5902 185.86 20.8102C186.03 21.0302 186.14 21.3102 186.14 21.6102C186.14 21.8902 186.03 22.1602 185.86 22.3802C185.64 22.6302 185.39 22.7402 185.12 22.7402H181.67V23.7102C181.67 24.4802 181.78 25.2002 182.06 25.8102C182.28 26.4702 182.64 27.0202 183.08 27.5202C183.49 28.0402 183.99 28.4902 184.57 28.8702C185.12 29.2802 185.73 29.6102 186.39 29.8902C186.61 30.0002 186.78 30.1902 186.86 30.5202C186.92 30.8802 186.89 31.1502 186.78 31.3802C186.64 31.6802 186.42 31.8802 186.09 31.9602C185.73 32.0702 185.4 32.0702 185.12 31.9302C184.18 31.5402 183.33 31.0202 182.5 30.3302C181.67 29.6702 180.96 28.7902 180.35 27.7402L180.34 27.7202ZM190.9 41.2402C191.2 41.2402 191.45 41.3802 191.67 41.6502C191.86 41.9002 191.97 42.1502 191.97 42.4202C191.97 42.6902 191.86 42.9702 191.67 43.2202C191.45 43.4402 191.2 43.5502 190.93 43.5502H181C180.39 43.5502 179.9 43.3802 179.54 43.0802C179.15 42.7502 178.99 42.3102 178.99 41.7302V36.7102C178.99 36.3802 179.13 36.0502 179.4 35.7202C179.65 35.4202 179.98 35.2502 180.37 35.2502C180.76 35.2502 181.09 35.4202 181.39 35.6902C181.67 36.0202 181.8 36.3202 181.8 36.6602V41.2402H190.9ZM190.33 19.1702C190.66 19.1702 190.99 19.3402 191.27 19.6102C191.55 19.9402 191.68 20.2702 191.68 20.6002V34.8302C191.68 35.1902 191.54 35.4902 191.27 35.7402C190.97 36.0202 190.66 36.1502 190.33 36.1502C189.92 36.1502 189.59 36.0102 189.31 35.7402C189.01 35.4902 188.87 35.1902 188.87 34.8302V20.6002C188.87 20.2102 189.01 19.8602 189.34 19.5802C189.62 19.3002 189.95 19.1702 190.33 19.1702Z" fill="#898A8D"/>
<path d="M194.82 37.18C194.6 37.18 194.38 37.07 194.16 36.79C193.94 36.57 193.83 36.29 193.83 35.99C193.83 35.71 193.94 35.47 194.16 35.22C194.38 35 194.6 34.86 194.82 34.86H212.83C213.11 34.86 213.35 34.97 213.6 35.16C213.82 35.38 213.93 35.66 213.93 35.99C213.93 36.29 213.82 36.57 213.63 36.79C213.41 37.07 213.16 37.18 212.91 37.18H194.81H194.82ZM198.95 29.05V22.82H197.05C196.8 22.82 196.58 22.71 196.36 22.46C196.14 22.24 196.03 21.96 196.03 21.69C196.03 21.36 196.14 21.08 196.36 20.83C196.55 20.61 196.77 20.5 196.99 20.5H210.12C210.4 20.5 210.64 20.61 210.86 20.83C211.03 21.08 211.14 21.35 211.14 21.69C211.14 21.97 211.03 22.24 210.86 22.46C210.64 22.71 210.39 22.82 210.06 22.82H208.38V29.05H210.12C210.4 29.05 210.64 29.16 210.86 29.38C211.03 29.63 211.14 29.9 211.14 30.24C211.14 30.52 211.03 30.79 210.86 31.01C210.64 31.26 210.39 31.37 210.06 31.37H197.04C196.79 31.37 196.57 31.26 196.35 31.01C196.13 30.79 196.02 30.51 196.02 30.24C196.02 29.91 196.13 29.63 196.35 29.38C196.54 29.16 196.76 29.05 196.98 29.05H198.94H198.95ZM201.77 22.81V29.04H205.58V22.81H201.77Z" fill="#898A8D"/>
<path d="M229.24 32.3802C229.24 32.8202 229.1 33.1002 228.88 33.2602C228.63 33.4502 228.36 33.5602 228.08 33.5902C226.65 33.8102 225.05 33.9802 223.28 34.0602C221.51 34.1702 219.56 34.2002 217.4 34.2002C217.07 34.2002 216.77 34.0902 216.49 33.8102C216.21 33.5602 216.08 33.2902 216.08 32.9802V27.3202C216.08 26.9302 216.22 26.6002 216.49 26.3502C216.77 26.1302 217.07 25.9902 217.46 25.9902H223.42V22.7602H217.3C216.97 22.7602 216.72 22.6802 216.5 22.4602C216.25 22.2702 216.14 21.9902 216.14 21.6602C216.14 21.3802 216.25 21.1102 216.47 20.8302C216.69 20.5802 216.94 20.4402 217.24 20.4402H224.8C225.13 20.4402 225.46 20.5802 225.77 20.8302C226.05 21.1102 226.21 21.4102 226.21 21.8002V26.9302C226.21 27.3202 226.07 27.6502 225.8 27.9002C225.5 28.1802 225.19 28.2902 224.86 28.2902H218.9V31.9002H218.96C220.62 31.9002 222.22 31.8702 223.76 31.7602C225.28 31.6802 226.74 31.5102 228.12 31.2902C228.4 31.3202 228.64 31.4302 228.89 31.6202C229.11 31.8402 229.25 32.0902 229.25 32.3602L229.24 32.3802ZM232.55 19.1702C232.88 19.1702 233.21 19.3402 233.49 19.6402C233.77 19.9702 233.9 20.3002 233.9 20.6302V37.9002C233.9 38.2602 233.76 38.5602 233.49 38.8402C233.19 39.1202 232.88 39.2502 232.55 39.2502C232.14 39.2502 231.78 39.1102 231.5 38.8402C231.2 38.5602 231.06 38.2602 231.06 37.9002V20.6302C231.06 20.2402 231.2 19.8902 231.53 19.5802C231.83 19.3002 232.16 19.1702 232.55 19.1702Z" fill="#898A8D"/>
<path d="M237.05 37.1802C236.83 37.1802 236.61 37.0702 236.39 36.7902C236.17 36.5702 236.06 36.2902 236.06 35.9902C236.06 35.7102 236.17 35.4702 236.39 35.2202C236.61 35.0002 236.83 34.8602 237.05 34.8602H255.06C255.34 34.8602 255.58 34.9702 255.83 35.1602C256.05 35.3802 256.16 35.6602 256.16 35.9902C256.16 36.2902 256.05 36.5702 255.86 36.7902C255.64 37.0702 255.39 37.1802 255.14 37.1802H237.04H237.05ZM242.12 22.7802V29.0102H251.44C251.77 29.0702 252.07 29.2002 252.3 29.4202C252.52 29.6702 252.63 29.9202 252.63 30.1902C252.63 30.4602 252.52 30.7402 252.33 30.9602C252.11 31.2102 251.83 31.3202 251.56 31.3202H241.19C240.58 31.3202 240.11 31.1502 239.81 30.8202C239.48 30.4902 239.34 30.0802 239.34 29.5502V22.1602C239.34 21.7202 239.48 21.3002 239.75 20.9502C240 20.6202 240.33 20.4502 240.72 20.4502H251.15C251.48 20.4502 251.78 20.5902 252.03 20.8102C252.25 21.0902 252.36 21.3602 252.36 21.6702C252.36 22.0002 252.22 22.2802 252 22.4702C251.75 22.6902 251.48 22.7702 251.14 22.7702H242.12V22.7802Z" fill="#898A8D"/>
<path d="M271.21 32.3802C271.21 32.8202 271.07 33.1002 270.85 33.2602C270.6 33.4502 270.33 33.5602 270.05 33.5902C268.62 33.8102 267.04 33.9802 265.39 34.0602C263.71 34.1702 261.8 34.2002 259.65 34.2002C259.32 34.2002 259.02 34.0902 258.74 33.8102C258.46 33.5602 258.33 33.2902 258.33 32.9802V27.3202C258.33 26.9302 258.47 26.6002 258.74 26.3502C259.02 26.1302 259.32 25.9902 259.71 25.9902H265.67V22.7602H259.55C259.22 22.7602 258.97 22.6802 258.75 22.4602C258.5 22.2702 258.39 21.9902 258.39 21.6602C258.39 21.3802 258.5 21.1102 258.72 20.8302C258.94 20.5802 259.19 20.4402 259.49 20.4402H267.05C267.38 20.4402 267.71 20.5802 268.02 20.8302C268.3 21.1102 268.46 21.4102 268.46 21.8002V26.9302C268.46 27.3202 268.32 27.6502 268.05 27.9002C267.75 28.1802 267.44 28.2902 267.11 28.2902H261.15V31.9002H261.21C262.87 31.9002 264.41 31.8702 265.87 31.7602C267.3 31.6802 268.71 31.5102 270.09 31.2902C270.37 31.3202 270.61 31.4302 270.86 31.6202C271.08 31.8402 271.22 32.0902 271.22 32.3602L271.21 32.3802ZM273.91 19.1702C274.3 19.1702 274.63 19.3402 274.9 19.6402C275.15 19.9702 275.29 20.3002 275.29 20.6302V26.1702H278.08C278.33 26.1702 278.58 26.2802 278.8 26.5002C278.99 26.7502 279.1 27.0202 279.1 27.3302C279.1 27.6102 278.99 27.8802 278.8 28.1002C278.58 28.3502 278.36 28.4602 278.08 28.4602H275.29V37.8702C275.29 38.2602 275.15 38.5602 274.88 38.8402C274.61 39.1202 274.27 39.2502 273.91 39.2502C273.5 39.2502 273.17 39.1102 272.89 38.8402C272.61 38.5702 272.48 38.2602 272.48 37.9002V20.6302C272.48 20.2402 272.62 19.8902 272.95 19.5802C273.23 19.3002 273.56 19.1702 273.92 19.1702H273.91Z" fill="#898A8D"/>
<path d="M287.34 20.4902C288.17 20.4902 288.94 20.6602 289.68 20.9902C290.4 21.3202 291.03 21.7902 291.58 22.3402C292.1 22.9202 292.55 23.5802 292.88 24.3002C293.18 25.0402 293.35 25.8202 293.35 26.6402C293.35 27.5202 293.18 28.3202 292.88 29.0702C292.55 29.8402 292.11 30.4802 291.58 31.0302C291.03 31.5802 290.39 32.0202 289.68 32.3302C288.94 32.6602 288.16 32.8302 287.34 32.8302C286.46 32.8302 285.66 32.6602 284.94 32.3302C284.2 32.0302 283.56 31.5902 283.01 31.0302C282.46 30.4702 282.04 29.8402 281.74 29.0702C281.41 28.3302 281.27 27.5302 281.27 26.6402C281.27 25.8102 281.41 25.0402 281.74 24.3002C282.04 23.5802 282.46 22.9202 283.01 22.3402C283.56 21.7902 284.2 21.3202 284.94 20.9902C285.66 20.6602 286.46 20.4902 287.34 20.4902ZM287.34 30.2602C288.22 30.2602 288.97 29.9302 289.6 29.2402C290.21 28.5802 290.54 27.7002 290.54 26.6502C290.54 25.6602 290.21 24.8002 289.6 24.0802C288.97 23.3902 288.22 23.0302 287.34 23.0302C286.37 23.0302 285.57 23.3902 284.97 24.0802C284.34 24.8002 284.03 25.6502 284.03 26.6502C284.03 27.7002 284.33 28.5802 284.97 29.2402C285.58 29.9302 286.38 30.2602 287.34 30.2602ZM297.96 19.1702C298.29 19.1702 298.62 19.3402 298.9 19.6402C299.18 19.9702 299.31 20.3002 299.31 20.6302V37.9002C299.31 38.2602 299.17 38.5602 298.9 38.8402C298.6 39.1202 298.29 39.2502 297.96 39.2502C297.55 39.2502 297.19 39.1102 296.91 38.8402C296.61 38.5602 296.47 38.2602 296.47 37.9002V20.6302C296.47 20.2402 296.61 19.8902 296.94 19.5802C297.24 19.3002 297.57 19.1702 297.96 19.1702Z" fill="#898A8D"/>
<path d="M302.45 37.18C302.23 37.18 302.01 37.07 301.79 36.79C301.57 36.57 301.46 36.29 301.46 35.99C301.46 35.71 301.57 35.47 301.79 35.22C302.01 35 302.23 34.86 302.45 34.86H320.46C320.74 34.86 320.98 34.97 321.23 35.16C321.45 35.38 321.56 35.66 321.56 35.99C321.56 36.29 321.45 36.57 321.26 36.79C321.04 37.07 320.79 37.18 320.54 37.18H302.44H302.45ZM306.59 29.05V22.82H304.69C304.44 22.82 304.22 22.71 304 22.46C303.78 22.24 303.67 21.96 303.67 21.69C303.67 21.36 303.78 21.08 304 20.83C304.19 20.61 304.41 20.5 304.63 20.5H317.76C318.04 20.5 318.28 20.61 318.5 20.83C318.67 21.08 318.78 21.35 318.78 21.69C318.78 21.97 318.67 22.24 318.5 22.46C318.28 22.71 318.03 22.82 317.7 22.82H316.02V29.05H317.76C318.04 29.05 318.28 29.16 318.5 29.38C318.67 29.63 318.78 29.9 318.78 30.24C318.78 30.52 318.67 30.79 318.5 31.01C318.28 31.26 318.03 31.37 317.7 31.37H304.68C304.43 31.37 304.21 31.26 303.99 31.01C303.77 30.79 303.66 30.51 303.66 30.24C303.66 29.91 303.77 29.63 303.99 29.38C304.18 29.16 304.4 29.05 304.62 29.05H306.58H306.59ZM309.4 22.81V29.04H313.21V22.81H309.4Z" fill="#898A8D"/>
</g>
<defs>
<clipPath id="clip0_22_2">
<rect width="321.57" height="43.86" fill="white"/>
</clipPath>
</defs>
</svg>
