<svg width="194" height="87" viewBox="0 0 194 87" fill="none" xmlns="http://www.w3.org/2000/svg">
<g clip-path="url(#clip0_23_28)">
<path d="M74.4602 41.5599C74.4602 41.5599 75.6302 41.5099 76.4202 42.6799L79.9302 47.6999C80.4402 48.4299 80.9902 49.1199 81.5702 49.7499C82.1502 50.3899 82.7802 50.9299 83.4502 51.3799C84.1202 51.8299 84.8602 52.1899 85.6602 52.4399C86.4602 52.6999 87.3702 52.8199 88.3602 52.8199C89.1402 52.8199 89.8102 52.7299 90.3902 52.5599C90.9602 52.3899 91.5502 52.1599 92.1002 51.7699L92.4502 51.5399C91.9402 51.1999 90.9702 50.4499 90.3502 49.8399C89.7302 49.2299 89.1002 48.5699 88.4702 47.8799C87.8402 47.1799 87.2302 46.4699 86.6402 45.7499C86.0602 45.0299 84.3302 42.7199 84.3302 42.7199C83.0502 41.1299 81.3702 41.5399 80.1902 41.5399H74.4502" fill="#139AD8"/>
<path d="M164.59 25.3999V52.1499H176.82C179.09 52.1499 181.24 51.8799 183.27 51.3499C185.29 50.8099 187.07 49.9999 188.6 48.8999C190.13 47.7999 191.33 46.3999 192.22 44.6999C193.11 42.9899 193.55 40.9899 193.55 38.6699C193.55 36.3499 193.14 34.5099 192.31 32.8399C191.48 31.1699 190.36 29.7899 188.94 28.6899C187.52 27.5899 185.86 26.7699 183.95 26.2199C182.05 25.6699 180.01 25.3999 177.86 25.3999H164.6H164.59ZM187.23 38.7799C187.23 40.2799 186.97 41.5399 186.44 42.5599C185.91 43.5799 185.2 44.3999 184.31 45.0199C183.42 45.6399 182.38 46.0899 181.21 46.3699C180.04 46.6499 178.81 46.7899 177.53 46.7899H170.86V30.7899H177.5C180.73 30.7899 183.16 31.4699 184.79 32.8299C186.42 34.1899 187.23 36.1799 187.23 38.7899V38.7799Z" fill="#139AD8"/>
<path d="M123.74 30.8099L122.28 25.4099H100V52.1499H121.91L124.87 46.7899H106.28V41.5699H119.79L122.55 36.3899H106.28V30.8099H123.74Z" fill="#139AD8"/>
<path d="M156.02 30.8099L154.56 25.4099H132.29V52.1499H154.2L157.15 46.7899H138.57V41.5699H152.08L154.83 36.3899H138.57V30.8099H156.02Z" fill="#139AD8"/>
<path d="M46.6901 36.1099C48.1301 36.1099 49.1301 35.8799 49.6901 35.4299C50.2501 34.9799 50.5301 34.2899 50.5301 33.4599C50.5301 32.6299 50.2501 31.9799 49.6901 31.5299C49.1301 31.0799 48.1301 30.8499 46.6901 30.8499H35.6801V52.1599H29.3901V25.4099H46.7001C48.2401 25.4099 49.6301 25.5899 50.8901 25.9599C52.1501 26.3299 53.2101 26.8699 54.0901 27.5799C54.9701 28.2899 55.6501 29.1599 56.1201 30.1899C56.5901 31.2199 56.8301 32.3799 56.8301 33.6799C56.8301 34.8299 56.6401 35.9099 56.2601 36.8599C55.8801 37.8199 55.2801 38.6399 54.4501 39.3399C53.6201 40.0399 52.5701 40.5799 51.2801 40.9799C50.8401 41.1199 50.3501 41.2199 49.8401 41.3099C49.8401 41.3099 48.8601 41.5799 44.2201 41.5899H37.8201L40.7501 36.1099H46.6901Z" fill="#139AD8"/>
<path d="M82.0002 36.1099C83.4402 36.1099 84.4402 35.8799 85.0002 35.4299C85.5602 34.9799 85.8402 34.2899 85.8402 33.4599C85.8402 32.6299 85.5602 31.9799 85.0002 31.5299C84.4402 31.0799 83.4402 30.8499 82.0002 30.8499H70.9902V52.1599H64.7002V25.4099H82.0102C83.5502 25.4099 84.9402 25.5899 86.2002 25.9599C87.4602 26.3299 88.5202 26.8699 89.4002 27.5799C90.2802 28.2899 90.9602 29.1599 91.4302 30.1899C91.9102 31.2199 92.1402 32.3799 92.1402 33.6799C92.1402 34.8299 91.9502 35.9099 91.5702 36.8599C91.1902 37.8199 90.5902 38.6399 89.7602 39.3399C88.9302 40.0399 87.8702 40.5799 86.5902 40.9799C86.1502 41.1199 85.6602 41.2199 85.1502 41.3099C85.1502 41.3099 84.1702 41.5799 79.5302 41.5899H73.1302L76.0602 36.1099H82.0002Z" fill="#139AD8"/>
<path d="M69.0901 0C68.2201 0 67.6501 0.69 67.6301 1.74V9.7C67.6301 10.87 67.4102 11.6 66.9302 11.92L66.3702 12.32C65.8902 12.65 65.6602 13.07 65.6602 13.62C65.6602 14.53 66.3702 15.18 67.3702 15.18C68.6802 15.18 70.0002 13.97 70.3902 12.44C70.5302 11.9 70.5302 11.71 70.5302 10.4V1.74C70.5302 0.71 69.9601 0 69.0901 0Z" fill="#139AD8"/>
<path d="M74.71 0C73.86 0 73.29 0.69 73.27 1.74V9.76C73.27 10.8 73.86 11.49 74.73 11.49C75.6 11.49 76.15 10.81 76.17 9.76V1.74C76.17 0.71 75.58 0 74.71 0Z" fill="#139AD8"/>
<path d="M46.9302 0C43.8802 0 41.4902 2.58 41.4902 5.89V9.71C41.4902 10.77 42.1002 11.49 42.9902 11.49C43.8802 11.49 44.4402 10.79 44.4602 9.71V5.8C44.4902 4.28 45.5302 3.12 46.9402 3.12C48.3502 3.12 49.3402 4.27 49.3702 5.73V9.72C49.3702 10.78 49.9602 11.5 50.8502 11.5C51.7402 11.5 52.3002 10.8 52.3202 9.72V5.82C52.3202 2.58 49.9102 0 46.9302 0Z" fill="#139AD8"/>
<path d="M84.0198 0C80.9598 0 78.5698 2.58 78.5698 5.89V9.71C78.5698 10.77 79.1798 11.49 80.0698 11.49C80.9598 11.49 81.5198 10.79 81.5498 9.71V5.8C81.5598 4.28 82.6098 3.12 84.0298 3.12C85.3498 3.12 86.4298 4.27 86.4598 5.73V9.72C86.4598 10.78 87.0498 11.5 87.9398 11.5C88.8298 11.5 89.3898 10.8 89.4098 9.72V5.82C89.4098 2.58 87.0098 0 84.0298 0L84.0198 0Z" fill="#139AD8"/>
<path d="M14.36 0C13.49 0 12.92 0.69 12.9 1.73V6.35C12.9 7.48 12.14 8.37 11.14 8.37C10.46 8.37 9.81 7.92 9.55 7.29C9.39 6.89 9.35 6.61 9.35 5.67V1.73C9.35 0.7 8.76 0 7.92 0H7.89C7.04 0 6.47 0.69 6.46 1.73V6.35C6.46 7.48 5.7 8.37 4.69 8.37C4.01 8.37 3.36 7.92 3.09 7.29C2.94 6.89 2.9 6.61 2.9 5.67V1.73C2.9 0.7 2.31 0 1.43 0C0.55 0 0.02 0.69 0 1.73V5.96C0 7.21 0.21 8.28 0.63 9.01C1.51 10.54 3.09 11.49 4.71 11.49C5.9 11.49 7.06 10.97 7.92 10.08C8.81 10.97 9.98 11.49 11.16 11.49C12.56 11.49 13.91 10.79 14.77 9.61C15.5 8.62 15.8 7.57 15.8 6.05V1.73C15.8 0.7 15.21 0 14.36 0Z" fill="#139AD8"/>
<path d="M29.5298 7.37999C30.1698 9.81999 32.2298 11.56 34.6898 11.56C37.7398 11.56 40.1398 8.98999 40.1398 5.67999C40.1398 2.57999 37.6798 -0.0100098 34.7098 -0.0100098C32.2298 -0.0100098 30.1298 1.80999 29.4998 4.23999H27.6898C27.0798 1.83999 24.9498 0.0299902 22.4698 0.0299902C19.5098 0.0299902 17.0698 2.62999 17.0698 5.77999C17.0698 8.92999 19.4598 11.6 22.4498 11.6C24.9698 11.6 27.0298 9.83999 27.6798 7.37999H29.5298ZM34.7098 3.16999C36.0598 3.16999 37.1698 4.34999 37.1698 5.72999C37.1698 7.27999 36.0998 8.44999 34.6798 8.44999C33.2598 8.44999 32.2498 7.26999 32.2498 5.79999C32.2498 4.32999 33.3598 3.16999 34.7098 3.16999ZM22.4398 8.47999C21.0898 8.47999 19.9998 7.29999 19.9998 5.82999C19.9998 4.35999 21.1098 3.18999 22.4598 3.18999C23.8098 3.18999 24.9198 4.36999 24.9198 5.75999C24.9198 7.29999 23.8498 8.47999 22.4298 8.47999H22.4398Z" fill="#139AD8"/>
<path d="M60.8898 12.22V10.61C63.1598 9.95999 64.7898 7.90999 64.7898 5.43999C64.7898 2.38999 62.3898 -0.0100098 59.3198 -0.0100098C56.4398 -0.0100098 54.0498 2.44999 54.0498 5.41999C54.0498 7.88999 55.7398 9.99999 57.9998 10.62V12.18C55.7598 12.81 54.0798 14.93 54.0798 17.42C54.0798 20.38 56.4898 22.82 59.4198 22.82C62.3498 22.82 64.8198 20.43 64.8198 17.44C64.8198 14.92 63.1898 12.86 60.8998 12.21L60.8898 12.22ZM56.9898 5.42999C56.9898 4.07999 58.0798 2.96999 59.3598 2.96999C60.7998 2.96999 61.8898 4.03999 61.8898 5.44999C61.8898 6.85999 60.7998 7.88999 59.4298 7.88999C58.0598 7.88999 56.9898 6.77999 56.9898 5.42999ZM59.4598 19.89C58.0998 19.89 57.0098 18.78 57.0098 17.43C57.0098 16.08 58.0998 14.97 59.3898 14.97C60.8298 14.97 61.9198 16.03 61.9198 17.45C61.9198 18.87 60.8298 19.89 59.4598 19.89Z" fill="#139AD8"/>
<path d="M38.3602 76.4C38.1702 76.4 37.9802 76.3 37.7802 76.09C37.5602 75.9 37.4702 75.66 37.4702 75.39C37.4702 75.15 37.5702 74.93 37.7602 74.72C37.9502 74.53 38.1402 74.41 38.3402 74.41H54.0202C54.2102 74.41 54.4302 74.51 54.6402 74.67C54.8302 74.86 54.9502 75.1 54.9502 75.39C54.9502 75.65 54.8502 75.89 54.6902 76.09C54.5002 76.31 54.2802 76.4 54.0702 76.4H47.4802V77.69C47.7202 77.74 47.9802 77.81 48.2502 77.88C48.8302 78.12 49.3502 78.41 49.8102 78.77C50.2402 79.15 50.6002 79.61 50.8602 80.11C51.1002 80.64 51.2402 81.21 51.2402 81.84C51.2402 82.42 51.1202 82.94 50.8802 83.45C50.6202 83.95 50.2802 84.41 49.8502 84.82C49.3902 85.2 48.8702 85.52 48.2902 85.75C47.6702 85.97 47.0202 86.09 46.3202 86.09C45.6202 86.09 44.9802 85.97 44.3802 85.78C43.7602 85.56 43.2302 85.28 42.8002 84.92C42.3202 84.54 41.9602 84.08 41.7202 83.58C41.4602 83.05 41.3402 82.48 41.3402 81.85C41.3402 81.22 41.4602 80.65 41.7202 80.12C41.9602 79.62 42.3202 79.16 42.8002 78.78C43.2302 78.42 43.7602 78.13 44.3602 77.89C44.5802 77.84 44.7902 77.77 45.0302 77.72V76.4H38.3702H38.3602ZM46.2002 73.54C45.4302 73.54 44.7602 73.42 44.1402 73.18C43.5202 72.96 42.9702 72.65 42.5302 72.22C42.0502 71.84 41.7102 71.36 41.4802 70.81C41.2202 70.28 41.1002 69.68 41.1002 69.06C41.1002 68.44 41.2202 67.86 41.4802 67.31C41.7202 66.78 42.0802 66.3 42.5602 65.87C42.9902 65.49 43.5402 65.15 44.1702 64.91C44.7902 64.67 45.4602 64.55 46.1802 64.55C46.9002 64.55 47.5702 64.67 48.1902 64.91C48.7902 65.15 49.3202 65.49 49.7702 65.87C50.2302 66.3 50.5902 66.78 50.8502 67.31C51.0902 67.86 51.2302 68.44 51.2302 69.06C51.2302 69.64 51.1102 70.19 50.8702 70.71C50.6302 71.26 50.2702 71.74 49.8402 72.15C49.4102 72.58 48.8802 72.92 48.2602 73.16C47.6402 73.42 46.9402 73.54 46.2002 73.54ZM46.1802 66.64C45.4102 66.64 44.7902 66.88 44.2602 67.31C43.7302 67.77 43.4702 68.34 43.4702 69.06C43.4702 69.73 43.7302 70.31 44.2602 70.79C44.7902 71.27 45.4102 71.51 46.1802 71.51C46.9002 71.51 47.5202 71.27 48.0502 70.79C48.5802 70.31 48.8402 69.74 48.8402 69.06C48.8402 68.34 48.5802 67.77 48.0702 67.31C47.5402 66.88 46.9002 66.64 46.1802 66.64ZM46.3002 79.66C45.5802 79.66 44.9802 79.85 44.4802 80.21C43.9502 80.59 43.7102 81.12 43.7102 81.84C43.7102 82.51 43.9502 83.06 44.4502 83.45C44.9302 83.83 45.5302 84.05 46.3002 84.05C47.0202 84.05 47.6202 83.83 48.1202 83.45C48.6002 83.07 48.8402 82.52 48.8402 81.84C48.8402 81.12 48.5802 80.59 48.1002 80.21C47.6002 79.85 47.0002 79.66 46.3002 79.66Z" fill="#898A8D"/>
<path d="M62.7303 72.0601L62.6603 71.9401L62.5903 72.0801C62.1103 72.9901 61.5103 73.8101 60.8403 74.5001C60.1403 75.2201 59.4003 75.7701 58.5903 76.2001C58.3503 76.3401 58.0603 76.3901 57.7803 76.3401C57.4703 76.3201 57.2303 76.1701 57.0803 75.9301C56.8903 75.7101 56.8203 75.4501 56.8903 75.1401C56.9403 74.8501 57.0803 74.6101 57.3203 74.4701C57.7503 74.1801 58.2103 73.8201 58.6903 73.3901C59.1503 72.9801 59.5803 72.5301 59.9803 72.0001C60.3603 71.5001 60.7003 70.9501 60.9603 70.3701C61.2003 69.7901 61.3403 69.2201 61.3403 68.6001V67.7101H58.4403C58.2503 67.7101 58.0603 67.6101 57.8603 67.4001C57.6403 67.2101 57.5503 66.9701 57.5503 66.7301C57.5503 66.4401 57.6503 66.2001 57.8403 66.0101C58.0303 65.8401 58.2203 65.7501 58.4203 65.7501H66.8803C67.1203 65.7501 67.3403 65.8501 67.5303 66.0401C67.6703 66.2301 67.7703 66.4701 67.7703 66.7401C67.7703 66.9801 67.6703 67.2201 67.5303 67.4101C67.3403 67.6301 67.1203 67.7201 66.8803 67.7201H63.8803V68.5601C63.8803 69.2301 63.9803 69.8501 64.2203 70.3801C64.4103 70.9601 64.7203 71.4301 65.1103 71.8701C65.4703 72.3301 65.9003 72.7101 66.4003 73.0401C66.8803 73.4001 67.4103 73.6901 67.9803 73.9301C68.1703 74.0301 68.3203 74.1901 68.3903 74.4801C68.4403 74.7901 68.4103 75.0301 68.3203 75.2201C68.2003 75.4801 68.0103 75.6501 67.7203 75.7201C67.4103 75.8201 67.1203 75.8201 66.8803 75.7001C66.0603 75.3601 65.3203 74.9101 64.6003 74.3101C63.8803 73.7301 63.2603 72.9701 62.7303 72.0601ZM71.9103 83.8001C72.1703 83.8001 72.3903 83.9201 72.5803 84.1601C72.7503 84.3801 72.8403 84.5901 72.8403 84.8301C72.8403 85.0701 72.7403 85.3101 72.5803 85.5201C72.3903 85.7101 72.1703 85.8101 71.9303 85.8101H63.3003C62.7703 85.8101 62.3403 85.6701 62.0303 85.4001C61.6903 85.1101 61.5503 84.7301 61.5503 84.2301V79.8701C61.5503 79.5801 61.6703 79.2901 61.9103 79.0101C62.1303 78.7501 62.4103 78.6001 62.7503 78.6001C63.0903 78.6001 63.3703 78.7401 63.6403 78.9801C63.8803 79.2701 64.0003 79.5301 64.0003 79.8201V83.8001H71.9103ZM71.4103 64.6301C71.7003 64.6301 71.9903 64.7701 72.2303 65.0101C72.4703 65.3001 72.5903 65.5901 72.5903 65.8701V78.2401C72.5903 78.5501 72.4703 78.8201 72.2303 79.0301C71.9703 79.2701 71.7003 79.3901 71.4103 79.3901C71.0503 79.3901 70.7603 79.2701 70.5203 79.0301C70.2603 78.8101 70.1403 78.5501 70.1403 78.2401V65.8701C70.1403 65.5301 70.2603 65.2201 70.5503 64.9801C70.7903 64.7401 71.0803 64.6201 71.4103 64.6201V64.6301Z" fill="#898A8D"/>
<path d="M75.3104 80.28C75.1204 80.28 74.9304 80.18 74.7304 79.94C74.5404 79.75 74.4404 79.51 74.4404 79.24C74.4404 79 74.5404 78.78 74.7304 78.57C74.9204 78.38 75.1104 78.26 75.3104 78.26H90.9604C91.2004 78.26 91.4204 78.36 91.6304 78.52C91.8204 78.71 91.9204 78.95 91.9204 79.24C91.9204 79.5 91.8204 79.74 91.6604 79.94C91.4704 80.18 91.2504 80.28 91.0404 80.28H75.3204H75.3104ZM78.9104 73.21V67.79H77.2604C77.0404 67.79 76.8504 67.69 76.6604 67.48C76.4704 67.29 76.3704 67.05 76.3704 66.81C76.3704 66.52 76.4704 66.28 76.6604 66.07C76.8304 65.88 77.0204 65.78 77.2104 65.78H88.6204C88.8604 65.78 89.0804 65.88 89.2704 66.07C89.4104 66.29 89.5104 66.53 89.5104 66.81C89.5104 67.05 89.4104 67.29 89.2704 67.48C89.0804 67.7 88.8604 67.79 88.5804 67.79H87.1204V73.21H88.6304C88.8704 73.21 89.0904 73.31 89.2804 73.5C89.4204 73.72 89.5204 73.96 89.5204 74.24C89.5204 74.48 89.4204 74.72 89.2804 74.91C89.0904 75.13 88.8704 75.22 88.5904 75.22H77.2804C77.0604 75.22 76.8704 75.12 76.6804 74.91C76.4904 74.72 76.3904 74.48 76.3904 74.24C76.3904 73.95 76.4904 73.71 76.6804 73.5C76.8504 73.31 77.0404 73.21 77.2304 73.21H78.9304H78.9104ZM81.3504 67.79V73.21H84.6604V67.79H81.3504Z" fill="#898A8D"/>
<path d="M105.22 76.1101C105.22 76.4901 105.1 76.7301 104.91 76.8801C104.69 77.0501 104.45 77.1401 104.21 77.1701C102.96 77.3601 101.57 77.5101 100.04 77.5801C98.5103 77.6801 96.8003 77.7001 94.9303 77.7001C94.6403 77.7001 94.3803 77.6001 94.1403 77.3601C93.9003 77.1401 93.7803 76.9001 93.7803 76.6401V71.7301C93.7803 71.3901 93.9003 71.1101 94.1403 70.8901C94.3803 70.7001 94.6403 70.5801 94.9803 70.5801H100.16V67.7801H94.8403C94.5503 67.7801 94.3403 67.7101 94.1403 67.5201C93.9203 67.3501 93.8303 67.1101 93.8303 66.8201C93.8303 66.5801 93.9303 66.3401 94.1203 66.1001C94.3103 65.8801 94.5303 65.7601 94.7903 65.7601H101.36C101.65 65.7601 101.94 65.8801 102.2 66.1001C102.44 66.3401 102.58 66.6001 102.58 66.9401V71.4001C102.58 71.7401 102.46 72.0201 102.22 72.2401C101.96 72.4801 101.69 72.5801 101.4 72.5801H96.2203V75.7201H96.2703C97.7103 75.7201 99.1003 75.7001 100.44 75.6001C101.76 75.5301 103.03 75.3801 104.23 75.1901C104.47 75.2101 104.69 75.3101 104.9 75.4801C105.09 75.6701 105.21 75.8901 105.21 76.1301L105.22 76.1101ZM108.09 64.6301C108.38 64.6301 108.67 64.7701 108.9 65.0401C109.14 65.3301 109.26 65.6201 109.26 65.9001V80.9001C109.26 81.2101 109.14 81.4801 108.9 81.7101C108.64 81.9501 108.37 82.0701 108.09 82.0701C107.73 82.0701 107.42 81.9501 107.18 81.7101C106.92 81.4701 106.8 81.2101 106.8 80.9001V65.9001C106.8 65.5601 106.92 65.2501 107.21 64.9901C107.47 64.7501 107.76 64.6301 108.1 64.6301H108.09Z" fill="#898A8D"/>
<path d="M112 80.28C111.81 80.28 111.62 80.18 111.42 79.94C111.23 79.75 111.13 79.51 111.13 79.24C111.13 79 111.23 78.78 111.42 78.57C111.61 78.38 111.8 78.26 112 78.26H127.65C127.89 78.26 128.11 78.36 128.32 78.52C128.51 78.71 128.61 78.95 128.61 79.24C128.61 79.5 128.51 79.74 128.35 79.94C128.16 80.18 127.94 80.28 127.73 80.28H112.01H112ZM116.41 67.77V73.19H124.51C124.8 73.24 125.06 73.36 125.25 73.55C125.44 73.77 125.54 73.98 125.54 74.22C125.54 74.46 125.44 74.7 125.28 74.89C125.09 75.11 124.85 75.2 124.61 75.2H115.6C115.07 75.2 114.67 75.06 114.4 74.77C114.11 74.48 113.99 74.12 113.99 73.67V67.25C113.99 66.87 114.11 66.51 114.35 66.2C114.57 65.91 114.85 65.77 115.19 65.77H124.25C124.54 65.77 124.8 65.89 125.02 66.08C125.21 66.32 125.31 66.56 125.31 66.82C125.31 67.11 125.19 67.35 125 67.52C124.78 67.71 124.54 67.78 124.26 67.78H116.42L116.41 67.77Z" fill="#898A8D"/>
<path d="M141.69 76.1101C141.69 76.4901 141.57 76.7301 141.38 76.8801C141.16 77.0501 140.92 77.1401 140.68 77.1701C139.43 77.3601 138.07 77.5101 136.63 77.5801C135.17 77.6801 133.51 77.7001 131.64 77.7001C131.35 77.7001 131.09 77.6001 130.85 77.3601C130.61 77.1401 130.49 76.9001 130.49 76.6401V71.7301C130.49 71.3901 130.61 71.1101 130.85 70.8901C131.09 70.7001 131.35 70.5801 131.69 70.5801H136.87V67.7801H131.55C131.26 67.7801 131.05 67.7101 130.85 67.5201C130.63 67.3501 130.54 67.1101 130.54 66.8201C130.54 66.5801 130.64 66.3401 130.83 66.1001C131.02 65.8801 131.24 65.7601 131.5 65.7601H138.07C138.36 65.7601 138.65 65.8801 138.91 66.1001C139.15 66.3401 139.29 66.6001 139.29 66.9401V71.4001C139.29 71.7401 139.17 72.0201 138.93 72.2401C138.67 72.4801 138.4 72.5801 138.12 72.5801H132.94V75.7201H132.99C134.43 75.7201 135.77 75.7001 137.04 75.6001C138.29 75.5301 139.51 75.3801 140.71 75.1901C140.95 75.2101 141.17 75.3101 141.38 75.4801C141.57 75.6701 141.69 75.8901 141.69 76.1301V76.1101ZM144.04 64.6301C144.38 64.6301 144.66 64.7701 144.9 65.0401C145.12 65.3301 145.24 65.6201 145.24 65.9001V70.7201H147.66C147.88 70.7201 148.09 70.8201 148.28 71.0101C148.45 71.2301 148.54 71.4701 148.54 71.7301C148.54 71.9701 148.44 72.2101 148.28 72.4001C148.09 72.6201 147.9 72.7101 147.66 72.7101H145.24V80.8801C145.24 81.2201 145.12 81.4801 144.88 81.7201C144.64 81.9601 144.35 82.0801 144.04 82.0801C143.68 82.0801 143.39 81.9601 143.15 81.7201C142.91 81.4801 142.79 81.2201 142.79 80.9101V65.9101C142.79 65.5701 142.91 65.2601 143.2 65.0001C143.44 64.7601 143.73 64.6401 144.04 64.6401V64.6301Z" fill="#898A8D"/>
<path d="M155.7 65.7801C156.42 65.7801 157.09 65.9201 157.74 66.2101C158.36 66.5001 158.91 66.9001 159.39 67.3801C159.85 67.8801 160.23 68.4601 160.52 69.0801C160.78 69.7301 160.93 70.4001 160.93 71.1201C160.93 71.8901 160.79 72.5801 160.52 73.2301C160.23 73.9001 159.85 74.4501 159.39 74.9301C158.91 75.4101 158.36 75.7901 157.74 76.0601C157.09 76.3501 156.42 76.4901 155.7 76.4901C154.93 76.4901 154.24 76.3501 153.61 76.0601C152.96 75.8001 152.41 75.4101 151.93 74.9301C151.45 74.4501 151.09 73.9001 150.83 73.2301C150.54 72.5801 150.42 71.8901 150.42 71.1201C150.42 70.4001 150.54 69.7301 150.83 69.0801C151.09 68.4601 151.45 67.8801 151.93 67.3801C152.41 66.9001 152.96 66.4901 153.61 66.2101C154.23 65.9201 154.93 65.7801 155.7 65.7801ZM155.7 74.2601C156.47 74.2601 157.11 73.9701 157.67 73.3701C158.2 72.7901 158.48 72.0301 158.48 71.1201C158.48 70.2601 158.19 69.5101 157.67 68.8901C157.12 68.2901 156.47 67.9801 155.7 67.9801C154.86 67.9801 154.17 68.2901 153.64 68.8901C153.09 69.5101 152.82 70.2601 152.82 71.1201C152.82 72.0301 153.08 72.8001 153.64 73.3701C154.17 73.9701 154.86 74.2601 155.7 74.2601ZM164.93 64.6301C165.22 64.6301 165.51 64.7701 165.74 65.0401C165.98 65.3301 166.1 65.6201 166.1 65.9001V80.9001C166.1 81.2101 165.98 81.4801 165.74 81.7101C165.48 81.9501 165.21 82.0701 164.93 82.0701C164.57 82.0701 164.26 81.9501 164.02 81.7101C163.76 81.4701 163.64 81.2101 163.64 80.9001V65.9001C163.64 65.5601 163.76 65.2501 164.05 64.9901C164.31 64.7501 164.6 64.6301 164.94 64.6301H164.93Z" fill="#898A8D"/>
<path d="M168.83 80.28C168.64 80.28 168.45 80.18 168.25 79.94C168.06 79.75 167.96 79.51 167.96 79.24C167.96 79 168.06 78.78 168.25 78.57C168.44 78.38 168.63 78.26 168.83 78.26H184.48C184.72 78.26 184.94 78.36 185.15 78.52C185.34 78.71 185.44 78.95 185.44 79.24C185.44 79.5 185.34 79.74 185.18 79.94C184.99 80.18 184.77 80.28 184.56 80.28H168.84H168.83ZM172.43 73.21V67.79H170.78C170.56 67.79 170.37 67.69 170.18 67.48C169.99 67.29 169.89 67.05 169.89 66.81C169.89 66.52 169.99 66.28 170.18 66.07C170.35 65.88 170.54 65.78 170.73 65.78H182.14C182.38 65.78 182.6 65.88 182.79 66.07C182.93 66.29 183.03 66.53 183.03 66.81C183.03 67.05 182.93 67.29 182.79 67.48C182.6 67.7 182.38 67.79 182.1 67.79H180.64V73.21H182.15C182.39 73.21 182.61 73.31 182.8 73.5C182.94 73.72 183.04 73.96 183.04 74.24C183.04 74.48 182.94 74.72 182.8 74.91C182.61 75.13 182.39 75.22 182.11 75.22H170.8C170.58 75.22 170.39 75.12 170.2 74.91C170.01 74.72 169.91 74.48 169.91 74.24C169.91 73.95 170.01 73.71 170.2 73.5C170.37 73.31 170.56 73.21 170.75 73.21H172.45H172.43ZM174.87 67.79V73.21H178.18V67.79H174.87Z" fill="#898A8D"/>
</g>
<defs>
<clipPath id="clip0_23_28">
<rect width="193.54" height="86.08" fill="white"/>
</clipPath>
</defs>
</svg>
