<svg width="221" height="40" viewBox="0 0 221 40" fill="none" xmlns="http://www.w3.org/2000/svg">
<g clip-path="url(#clip0_29_2)">
<path d="M56.04 31.2801C56.04 31.2801 56.92 31.2401 57.51 32.1201L60.15 35.9001C60.54 36.4501 60.95 36.9701 61.39 37.4501C61.83 37.9301 62.3 38.3401 62.8 38.6801C63.3 39.0201 63.86 39.2901 64.46 39.4801C65.06 39.6701 65.74 39.7701 66.5 39.7701C67.09 39.7701 67.59 39.7101 68.02 39.5801C68.45 39.4501 68.89 39.2801 69.31 38.9901L69.58 38.8201C69.19 38.5601 68.47 38.0001 68 37.5401C67.53 37.0801 67.06 36.5901 66.58 36.0601C66.1 35.5401 65.65 35.0001 65.21 34.4601C64.77 33.9201 63.47 32.1801 63.47 32.1801C62.51 30.9901 61.24 31.2901 60.36 31.2901H56.04" fill="#139AD8"/>
<path d="M123.87 19.1201V39.2501H133.07C134.78 39.2501 136.4 39.0501 137.92 38.6401C139.44 38.2401 140.78 37.6201 141.93 36.8001C143.08 35.9701 143.99 34.9201 144.66 33.6401C145.33 32.3601 145.66 30.8501 145.66 29.1001C145.66 27.3501 145.35 25.9701 144.73 24.7101C144.11 23.4501 143.26 22.4101 142.19 21.5901C141.12 20.7601 139.87 20.1501 138.44 19.7301C137.01 19.3201 135.48 19.1101 133.86 19.1101H123.88L123.87 19.1201ZM140.91 29.1901C140.91 30.3201 140.71 31.2701 140.32 32.0301C139.92 32.7901 139.39 33.4101 138.71 33.8801C138.04 34.3501 137.26 34.6901 136.38 34.9001C135.5 35.1101 134.58 35.2101 133.61 35.2101H128.59V23.1701H133.58C136.01 23.1701 137.84 23.6801 139.07 24.7101C140.3 25.7401 140.91 27.2301 140.91 29.1901Z" fill="#139AD8"/>
<path d="M93.1298 23.1901L92.0298 19.1201H75.2598V39.2501H91.7498L93.9798 35.2201H79.9898V31.2901H90.1598L92.2298 27.3901H79.9898V23.1901H93.1298Z" fill="#139AD8"/>
<path d="M117.43 23.1901L116.33 19.1201H99.5601V39.2501H116.05L118.28 35.2201H104.29V31.2901H114.46L116.53 27.3901H104.29V23.1901H117.43Z" fill="#139AD8"/>
<path d="M35.1399 27.1701C36.2199 27.1701 36.9799 27.0001 37.3999 26.6601C37.8199 26.3201 38.0299 25.8001 38.0299 25.1701C38.0299 24.5401 37.8199 24.0601 37.3999 23.7201C36.9799 23.3801 36.2199 23.2101 35.1399 23.2101H26.8499V39.2501H22.1099V19.1201H35.1299C36.2899 19.1201 37.3399 19.2601 38.2799 19.5301C39.2299 19.8101 40.0299 20.2101 40.6899 20.7501C41.3499 21.2901 41.8599 21.9401 42.2199 22.7101C42.5799 23.4801 42.7599 24.3601 42.7599 25.3401C42.7599 26.2101 42.6199 27.0201 42.3299 27.7401C42.0499 28.4601 41.5899 29.0801 40.9699 29.6101C40.3499 30.1401 39.5499 30.5501 38.5899 30.8401C38.2599 30.9401 37.8899 31.0201 37.4999 31.0901C37.4999 31.0901 36.7599 31.2901 33.2699 31.3001H28.4599L30.6599 27.1801H35.1299L35.1399 27.1701Z" fill="#139AD8"/>
<path d="M61.7097 27.1701C62.7897 27.1701 63.5497 27.0001 63.9697 26.6601C64.3897 26.3201 64.5997 25.8001 64.5997 25.1701C64.5997 24.5401 64.3897 24.0601 63.9697 23.7201C63.5497 23.3801 62.7897 23.2101 61.7097 23.2101H53.4197V39.2501H48.6797V19.1201H61.6997C62.8597 19.1201 63.9097 19.2601 64.8497 19.5301C65.7897 19.8101 66.5997 20.2101 67.2597 20.7501C67.9197 21.2901 68.4297 21.9401 68.7897 22.7101C69.1497 23.4801 69.3297 24.3601 69.3297 25.3401C69.3297 26.2101 69.1897 27.0201 68.8997 27.7401C68.6097 28.4601 68.1597 29.0801 67.5397 29.6101C66.9197 30.1401 66.1197 30.5501 65.1597 30.8401C64.8297 30.9401 64.4597 31.0201 64.0697 31.0901C64.0697 31.0901 63.3297 31.2901 59.8397 31.3001H55.0297L57.2297 27.1801H61.6997L61.7097 27.1701Z" fill="#139AD8"/>
<path d="M52.0002 0C51.3402 0 50.9202 0.52 50.9002 1.31V7.3C50.9002 8.18 50.7302 8.73 50.3802 8.97L49.9602 9.27C49.6002 9.52 49.4302 9.84 49.4302 10.25C49.4302 10.94 49.9602 11.43 50.7102 11.43C51.6902 11.43 52.6902 10.52 52.9802 9.37C53.0902 8.96 53.0902 8.82 53.0902 7.84V1.31C53.0902 0.54 52.6602 0 52.0102 0H52.0002Z" fill="#139AD8"/>
<path d="M56.2301 0C55.5901 0 55.1601 0.52 55.1401 1.31V7.35C55.1401 8.13 55.5901 8.66 56.2401 8.66C56.8901 8.66 57.3101 8.15 57.3201 7.35V1.31C57.3201 0.54 56.8801 0 56.2201 0H56.2301Z" fill="#139AD8"/>
<path d="M35.3202 0C33.0202 0 31.2202 1.94 31.2202 4.43V7.31C31.2202 8.11 31.6802 8.65 32.3502 8.65C33.0202 8.65 33.4402 8.12 33.4602 7.31V4.37C33.4802 3.22 34.2702 2.35 35.3202 2.35C36.3702 2.35 37.1302 3.22 37.1502 4.31V7.31C37.1502 8.11 37.6002 8.65 38.2702 8.65C38.9402 8.65 39.3602 8.12 39.3802 7.31V4.38C39.3802 1.94 37.5702 0 35.3202 0Z" fill="#139AD8"/>
<path d="M63.2299 0C60.9299 0 59.1299 1.94 59.1299 4.43V7.31C59.1299 8.11 59.5899 8.65 60.2599 8.65C60.9299 8.65 61.3499 8.12 61.3699 7.31V4.37C61.3699 3.22 62.1699 2.35 63.2299 2.35C64.2199 2.35 65.0399 3.22 65.0599 4.31V7.31C65.0599 8.11 65.4999 8.65 66.1699 8.65C66.8399 8.65 67.2599 8.12 67.2799 7.31V4.38C67.2799 1.94 65.4699 0 63.2299 0Z" fill="#139AD8"/>
<path d="M10.8 0C10.15 0 9.72 0.52 9.7 1.3V4.78C9.7 5.63 9.13 6.3 8.38 6.3C7.87 6.3 7.38 5.96 7.18 5.49C7.06 5.19 7.03 4.98 7.03 4.27V1.3C7.03 0.53 6.59 0 5.95 0H5.93C5.29 0 4.86 0.52 4.85 1.3V4.78C4.85 5.63 4.27 6.3 3.52 6.3C3.01 6.3 2.52 5.96 2.32 5.49C2.21 5.19 2.18 4.98 2.18 4.27V1.3C2.18 0.53 1.74 0 1.07 0C0.4 0 0.02 0.52 0 1.3V4.48C0 5.42 0.16 6.23 0.47 6.78C1.13 7.93 2.32 8.65 3.54 8.65C4.44 8.65 5.31 8.26 5.96 7.59C6.63 8.26 7.51 8.65 8.4 8.65C9.45 8.65 10.47 8.12 11.12 7.24C11.67 6.5 11.89 5.71 11.89 4.56V1.3C11.89 0.53 11.45 0 10.81 0H10.8Z" fill="#139AD8"/>
<path d="M22.2201 5.55C22.7001 7.38 24.2501 8.7 26.1001 8.7C28.4001 8.7 30.2001 6.76 30.2001 4.28C30.2001 1.94 28.3501 0 26.1201 0C24.2601 0 22.6701 1.37 22.2001 3.2H20.8401C20.3801 1.39 18.7801 0.02 16.9101 0.02C14.6801 0.02 12.8501 1.98 12.8501 4.35C12.8501 6.72 14.6501 8.73 16.9001 8.73C18.7901 8.73 20.3501 7.41 20.8401 5.55H22.2301H22.2201ZM26.1301 2.38C27.1501 2.38 27.9801 3.27 27.9801 4.31C27.9801 5.47 27.1801 6.36 26.1101 6.36C25.0401 6.36 24.2801 5.47 24.2801 4.36C24.2801 3.25 25.1101 2.38 26.1301 2.38ZM16.8901 6.38C15.8801 6.38 15.0601 5.49 15.0601 4.39C15.0601 3.29 15.8901 2.41 16.9101 2.41C17.9301 2.41 18.7601 3.3 18.7601 4.34C18.7601 5.5 17.9501 6.39 16.8901 6.39V6.38Z" fill="#139AD8"/>
<path d="M45.8199 9.18999V7.97999C47.5299 7.48999 48.7499 5.94999 48.7499 4.08999C48.7499 1.79999 46.9499 -0.0100098 44.6399 -0.0100098C42.4699 -0.0100098 40.6699 1.83999 40.6699 4.07999C40.6699 5.93999 41.9399 7.51999 43.6499 7.99999V9.17999C41.9599 9.64999 40.6999 11.25 40.6999 13.12C40.6999 15.35 42.5199 17.18 44.7199 17.18C46.9199 17.18 48.7799 15.38 48.7799 13.13C48.7799 11.23 47.5499 9.67999 45.8299 9.18999H45.8199ZM42.8899 4.08999C42.8899 3.06999 43.7099 2.23999 44.6799 2.23999C45.7699 2.23999 46.5899 3.03999 46.5899 4.10999C46.5899 5.17999 45.7699 5.94999 44.7399 5.94999C43.7099 5.94999 42.8999 5.10999 42.8999 4.09999L42.8899 4.08999ZM44.7499 14.97C43.7199 14.97 42.8999 14.13 42.8999 13.12C42.8999 12.11 43.7199 11.27 44.6899 11.27C45.7699 11.27 46.5899 12.07 46.5899 13.14C46.5899 14.21 45.7699 14.98 44.7399 14.98L44.7499 14.97Z" fill="#139AD8"/>
<path d="M156.82 35.35H164.62C165.17 35.35 165.66 35.95 165.66 36.58C165.66 37.21 165.2 37.78 164.57 37.78H155.46C154.75 37.78 154.04 37.04 154.04 36.28V21.88C154.04 21.06 154.61 20.46 155.49 20.46C156.37 20.46 156.83 21.03 156.83 21.88V35.35H156.82Z" fill="#90908F"/>
<path d="M164.57 38.1801H155.46C154.53 38.1801 153.64 37.2601 153.64 36.2801V21.8801C153.64 20.8301 154.42 20.0601 155.49 20.0601C156.56 20.0601 157.23 20.7901 157.23 21.8801V34.9501H164.63C165.39 34.9501 166.07 35.7101 166.07 36.5801C166.07 37.3501 165.47 38.1801 164.58 38.1801H164.57ZM155.49 20.8601C154.86 20.8601 154.45 21.2601 154.45 21.8801V36.2801C154.45 36.8101 154.97 37.3801 155.47 37.3801H164.58C164.99 37.3801 165.27 36.9601 165.27 36.5801C165.27 36.1701 164.95 35.7501 164.63 35.7501H156.43V21.8801C156.43 21.5701 156.34 20.8601 155.49 20.8601Z" fill="#90908F"/>
<path d="M177.75 21.88V36.49C177.75 37.17 177.2 37.91 176.41 37.91C175.73 37.91 174.96 37.28 174.96 36.52V21.88C174.96 21.06 175.53 20.46 176.41 20.46C177.29 20.46 177.75 21.03 177.75 21.88Z" fill="#90908F"/>
<path d="M176.41 38.3101C175.54 38.3101 174.56 37.5401 174.56 36.5201V21.8801C174.56 20.8301 175.34 20.0601 176.41 20.0601C177.48 20.0601 178.15 20.7901 178.15 21.8801V36.4901C178.15 37.3701 177.45 38.3101 176.41 38.3101ZM176.41 20.8601C175.78 20.8601 175.37 21.2601 175.37 21.8801V36.5201C175.37 37.0501 175.94 37.5101 176.41 37.5101C176.96 37.5101 177.35 36.9701 177.35 36.4901V21.8801C177.35 21.5701 177.26 20.8601 176.41 20.8601Z" fill="#90908F"/>
<path d="M188.52 37.91C187.84 37.91 187.07 37.28 187.07 36.52V21.88C187.07 21.06 187.64 20.46 188.43 20.46H197.59C198.16 20.46 198.65 21.06 198.65 21.69C198.65 22.32 198.19 22.89 197.53 22.92H189.84V27.64H197.15C197.7 27.64 198.19 28.24 198.19 28.87C198.19 29.5 197.73 30.07 197.07 30.1H189.84V36.53C189.84 37.18 189.29 37.92 188.5 37.92L188.52 37.91Z" fill="#90908F"/>
<path d="M188.52 38.3101C187.65 38.3101 186.67 37.5401 186.67 36.5201V21.8801C186.67 20.8401 187.43 20.0601 188.43 20.0601H197.59C198.37 20.0601 199.05 20.8201 199.05 21.6901C199.05 22.5601 198.38 23.2801 197.55 23.3201H190.25V27.2401H197.16C197.92 27.2401 198.6 28.0001 198.6 28.8701C198.6 29.7401 197.93 30.4601 197.1 30.5001H190.26V36.5401C190.26 37.3901 189.55 38.3301 188.52 38.3301V38.3101ZM188.44 20.8601C187.87 20.8601 187.48 21.2801 187.48 21.8801V36.5201C187.48 37.0501 188.05 37.5101 188.52 37.5101C189.1 37.5101 189.46 36.9301 189.46 36.5201V29.6901H197.08C197.5 29.6701 197.8 29.2501 197.8 28.8601C197.8 28.4501 197.48 28.0301 197.16 28.0301H189.45V22.5101H197.54C197.96 22.4901 198.26 22.0701 198.26 21.6801C198.26 21.2601 197.93 20.8501 197.6 20.8501H188.44V20.8601Z" fill="#90908F"/>
<path d="M219.27 22.92H210.76V27.64H218.88C219.43 27.64 219.92 28.24 219.92 28.87C219.92 29.5 219.46 30.07 218.8 30.1H210.76V35.36H219.38C219.93 35.36 220.42 35.96 220.42 36.59C220.42 37.22 219.96 37.79 219.33 37.79H209.41C208.7 37.79 207.99 37.05 207.99 36.29V21.89C207.99 21.07 208.56 20.47 209.35 20.47H219.33C219.9 20.47 220.39 21.07 220.39 21.7C220.39 22.33 219.93 22.9 219.27 22.93V22.92Z" fill="#90908F"/>
<path d="M219.33 38.1801H209.41C208.48 38.1801 207.59 37.2601 207.59 36.2801V21.8801C207.59 20.8401 208.35 20.0601 209.35 20.0601H219.33C220.11 20.0601 220.79 20.8201 220.79 21.6901C220.79 22.5601 220.12 23.2801 219.29 23.3201H219.27H211.16V27.2401H218.88C219.64 27.2401 220.32 28.0001 220.32 28.8701C220.32 29.7401 219.65 30.4601 218.82 30.5001H211.16V34.9601H219.37C220.13 34.9601 220.81 35.7201 220.81 36.5901C220.81 37.3601 220.21 38.1901 219.32 38.1901L219.33 38.1801ZM209.35 20.8601C208.78 20.8601 208.39 21.2801 208.39 21.8801V36.2801C208.39 36.8101 208.91 37.3801 209.41 37.3801H219.33C219.74 37.3801 220.02 36.9601 220.02 36.5801C220.02 36.1701 219.7 35.7501 219.38 35.7501H210.36V29.6901H218.8C219.22 29.6701 219.52 29.2501 219.52 28.8601C219.52 28.4501 219.2 28.0301 218.88 28.0301H210.35V22.5101H219.25C219.69 22.4901 219.98 22.0701 219.98 21.6801C219.98 21.2601 219.65 20.8501 219.32 20.8501H209.34L209.35 20.8601Z" fill="#90908F"/>
</g>
<defs>
<clipPath id="clip0_29_2">
<rect width="220.82" height="39.76" fill="white"/>
</clipPath>
</defs>
</svg>
